# File created by Blade
# Date/Time:  Thu Sep 25 19:32:06 2014
# Frame Rate: 120.000 fps
#------------------------------------------------------
:FULLY-SPECIFIED
:DEGREES
699
root -10.457523 32.316634 -8.206742 1.325547 8.867108 3.564141
Spine -10.323865 -0.047978 -40.481186
Head 4.983912 -7.811477 -3.601796
LeftShoulder -6.266473 25.059424 7.867599
LeftArm 15.734258 31.950736 -53.621974
LeftForeArm 15.948317 -0.000000 9.751830
LeftHand -29.866815 -0.000000 1.883774
LeftHandThumb1 -26.253704 0.000000 33.147579
RightShoulder -19.806401 23.730494 -52.479908
RightArm 27.424895 40.610824 19.769628
RightForeArm 27.361543 -0.000000 33.494855
RightHand 5.634277 -0.000000 2.439100
RightHandThumb1 -24.326973 -0.000000 -32.862282
LeftUpLeg 11.993468 -3.812389 -8.921275
LeftLeg -2.594450 -0.000000 0.000000
LeftFoot -14.237560 4.093006 -13.240356
LeftToeBase 6.094381 -0.000000 -0.000000
RightUpLeg -4.253242 -6.121343 13.602141
RightLeg 13.664400 -0.000000 -0.000000
RightFoot -10.435204 -4.308577 -2.182882
RightToeBase -9.348468 -0.000000 0.000000
700
root -10.470757 32.315930 -8.215027 1.328132 8.913163 3.627675
Spine -10.295666 -0.091596 -40.487323
Head 5.009674 -7.837085 -3.444900
LeftShoulder -6.274591 25.072622 7.889682
LeftArm 15.781223 32.000838 -53.580790
LeftForeArm 15.874078 -0.000000 9.799119
LeftHand -29.859884 -0.000000 1.857583
LeftHandThumb1 -26.253704 0.000000 33.147579
RightShoulder -19.794974 23.798078 -52.509891
RightArm 27.335739 40.535176 19.805836
RightForeArm 27.376846 -0.000000 33.596409
RightHand 5.597443 -0.000000 2.454434
RightHandThumb1 -24.326973 -0.000000 -32.862282
LeftUpLeg 11.987926 -3.857187 -8.961180
LeftLeg -2.603901 -0.000000 0.000000
LeftFoot -14.276218 4.093686 -13.369064
LeftToeBase 6.123417 -0.000000 -0.000000
RightUpLeg -4.277449 -6.124093 13.569978
RightLeg 13.675098 -0.000000 -0.000000
RightFoot -10.433185 -4.390375 -2.197189
RightToeBase -9.379636 -0.000000 0.000000
701
root -10.484820 32.315301 -8.223440 1.335352 8.949804 3.677264
Spine -10.275284 -0.134104 -40.461610
Head 5.035712 -7.831583 -3.361938
LeftShoulder -6.311650 25.144359 7.885975
LeftArm 15.908408 32.019575 -53.481646
LeftForeArm 15.665423 -0.000000 9.875591
LeftHand -29.848423 -0.000000 1.678970
LeftHandThumb1 -26.253704 0.000000 33.147579
RightShoulder -19.790856 23.824672 -52.485765
RightArm 27.342314 40.476090 19.801999
RightForeArm 27.352450 -0.000000 33.604723
RightHand 5.680991 -0.000000 2.476844
RightHandThumb1 -24.326973 -0.000000 -32.862282
LeftUpLeg 11.973528 -3.855357 -8.982816
LeftLeg -2.601701 -0.000000 0.000000
LeftFoot -14.238970 4.056165 -13.296806
LeftToeBase 6.135178 -0.000000 -0.000000
RightUpLeg -4.312093 -6.102510 13.553520
RightLeg 13.695375 -0.000000 -0.000000
RightFoot -10.417245 -4.482828 -2.224317
RightToeBase -9.411105 -0.000000 0.000000
702
root -10.498405 32.314786 -8.231667 1.350165 8.987517 3.732060
Spine -10.260811 -0.136346 -40.469153
Head 5.080877 -7.858205 -3.209401
LeftShoulder -6.292293 25.179789 7.933884
LeftArm 16.004279 32.063504 -53.428502
LeftForeArm 15.636422 -0.000000 9.912662
LeftHand -29.798947 -0.000000 1.630094
LeftHandThumb1 -26.253704 0.000000 33.147579
RightShoulder -19.789287 23.739635 -52.407592
RightArm 27.385638 40.505952 19.799560
RightForeArm 27.378098 -0.000000 33.604554
RightHand 5.680088 -0.000000 2.560777
RightHandThumb1 -24.326973 -0.000000 -32.862282
LeftUpLeg 11.952978 -3.849549 -9.006277
LeftLeg -2.613684 -0.000000 0.000000
LeftFoot -14.222293 4.062019 -13.311665
LeftToeBase 5.988550 -0.000000 -0.000000
RightUpLeg -4.354052 -6.094280 13.529776
RightLeg 13.718776 -0.000000 -0.000000
RightFoot -10.413561 -4.543306 -2.241381
RightToeBase -9.371088 -0.000000 0.000000
703
root -10.512375 32.314466 -8.239931 1.366919 9.017498 3.782100
Spine -10.258225 -0.133385 -40.472555
Head 5.154874 -7.912032 -3.035971
LeftShoulder -6.260916 25.127500 8.005770
LeftArm 16.024118 32.160173 -53.439645
LeftForeArm 15.653704 0.000000 9.905971
LeftHand -29.715704 -0.000000 1.595861
LeftHandThumb1 -26.253704 0.000000 33.147579
RightShoulder -19.748619 23.622986 -52.299911
RightArm 27.390053 40.574795 19.762251
RightForeArm 27.378546 -0.000000 33.641862
RightHand 5.626260 -0.000000 2.569965
RightHandThumb1 -24.326973 -0.000000 -32.862282
LeftUpLeg 11.940011 -3.879231 -9.029964
LeftLeg -2.642991 -0.000000 0.000000
LeftFoot -14.182353 4.064484 -13.307924
LeftToeBase 5.898672 -0.000000 -0.000000
RightUpLeg -4.399473 -6.079734 13.511152
RightLeg 13.746432 -0.000000 -0.000000
RightFoot -10.407485 -4.614236 -2.242910
RightToeBase -9.360246 -0.000000 0.000000
704
root -10.524846 32.314517 -8.247881 1.378391 9.049211 3.832780
Spine -10.253284 -0.141693 -40.462237
Head 5.231001 -7.934983 -2.922670
LeftShoulder -6.239078 25.129731 8.039171
LeftArm 16.060982 32.180792 -53.427043
LeftForeArm 15.676476 -0.000000 9.938668
LeftHand -29.719206 -0.000000 1.552968
LeftHandThumb1 -26.253704 0.000000 33.147579
RightShoulder -19.728378 23.710394 -52.286185
RightArm 27.281699 40.428941 19.674031
RightForeArm 27.339147 -0.000000 33.704269
RightHand 5.623495 -0.000000 2.488850
RightHandThumb1 -24.326973 -0.000000 -32.862282
LeftUpLeg 11.924872 -3.861426 -9.049813
LeftLeg -2.646767 -0.000000 0.000000
LeftFoot -14.121747 4.018216 -13.209679
LeftToeBase 6.048671 -0.000000 -0.000000
RightUpLeg -4.435652 -6.062553 13.488875
RightLeg 13.766242 -0.000000 -0.000000
RightFoot -10.399147 -4.684074 -2.255798
RightToeBase -9.340463 -0.000000 0.000000
705
root -10.538715 32.313648 -8.255332 1.395984 9.083295 3.869809
Spine -10.263055 -0.152401 -40.430546
Head 5.292734 -7.980603 -2.809857
LeftShoulder -6.221378 25.128703 8.070380
LeftArm 16.092492 32.189993 -53.432713
LeftForeArm 15.700226 -0.000000 9.953642
LeftHand -29.684982 -0.000000 1.535978
LeftHandThumb1 -26.253704 0.000000 33.147579
RightShoulder -19.689577 23.633466 -52.188298
RightArm 27.365370 40.494746 19.688329
RightForeArm 27.272944 0.000000 33.690236
RightHand 5.644937 -0.000000 2.527423
RightHandThumb1 -24.326973 -0.000000 -32.862282
LeftUpLeg 11.894396 -3.837396 -9.047798
LeftLeg -2.639515 -0.000000 0.000000
LeftFoot -14.151577 3.914915 -13.330973
LeftToeBase 6.206130 -0.000000 -0.000000
RightUpLeg -4.474058 -6.032141 13.481729
RightLeg 13.776424 -0.000000 -0.000000
RightFoot -10.394695 -4.750953 -2.255167
RightToeBase -9.246387 -0.000000 0.000000
706
root -10.551051 32.313252 -8.261847 1.418001 9.128017 3.920519
Spine -10.254966 -0.140567 -40.417145
Head 5.294531 -8.027324 -2.692768
LeftShoulder -6.233159 25.093389 8.088990
LeftArm 16.166188 32.225364 -53.390500
LeftForeArm 15.719904 0.000000 9.958653
LeftHand -29.701461 0.000000 1.471962
LeftHandThumb1 -26.253704 0.000000 33.147579
RightShoulder -19.690473 23.525726 -52.141361
RightArm 27.405058 40.558756 19.730779
RightForeArm 27.251267 -0.000000 33.735720
RightHand 5.617154 -0.000000 2.414703
RightHandThumb1 -24.326973 -0.000000 -32.862282
LeftUpLeg 11.885457 -3.846181 -9.068431
LeftLeg -2.683900 -0.000000 0.000000
LeftFoot -14.138544 3.900467 -13.385017
LeftToeBase 6.087481 -0.000000 -0.000000
RightUpLeg -4.511324 -6.027529 13.457127
RightLeg 13.785354 -0.000000 -0.000000
RightFoot -10.406225 -4.806898 -2.235635
RightToeBase -9.248668 -0.000000 0.000000
707
root -10.562612 32.313053 -8.270408 1.444630 9.180886 3.973946
Spine -10.235976 -0.138586 -40.405723
Head 5.290080 -8.075007 -2.577944
LeftShoulder -6.226799 25.034394 8.111888
LeftArm 16.176652 32.208931 -53.393342
LeftForeArm 15.716175 0.000000 10.008469
LeftHand -29.783271 -0.000000 1.433898
LeftHandThumb1 -26.253704 0.000000 33.147579
RightShoulder -19.701164 23.594618 -52.118650
RightArm 27.340228 40.460582 19.672984
RightForeArm 27.192938 -0.000000 33.808887
RightHand 5.620835 0.000000 2.319850
RightHandThumb1 -24.326973 -0.000000 -32.862282
LeftUpLeg 11.853637 -3.879308 -9.097638
LeftLeg -2.679269 -0.000000 0.000000
LeftFoot -14.115520 3.873650 -13.360151
LeftToeBase 6.374634 -0.000000 -0.000000
RightUpLeg -4.550711 -6.011287 13.433373
RightLeg 13.778726 -0.000000 -0.000000
RightFoot -10.408256 -4.882874 -2.242513
RightToeBase -9.206771 -0.000000 0.000000
708
root -10.574379 32.312640 -8.278962 1.471311 9.233509 4.022464
Spine -10.204733 -0.148509 -40.379793
Head 5.301817 -8.086111 -2.466041
LeftShoulder -6.267149 24.961199 8.103487
LeftArm 16.218229 32.230078 -53.352282
LeftForeArm 15.658595 -0.000000 10.043712
LeftHand -29.808163 -0.000000 1.378649
LeftHandThumb1 -26.253704 0.000000 33.147579
RightShoulder -19.701276 23.566352 -52.077232
RightArm 27.343766 40.514635 19.703479
RightForeArm 27.111259 -0.000000 33.885895
RightHand 5.619673 -0.000000 2.365887
RightHandThumb1 -24.326973 -0.000000 -32.862282
LeftUpLeg 11.816934 -3.907077 -9.118043
LeftLeg -2.682128 -0.000000 0.000000
LeftFoot -14.110475 3.854128 -13.438480
LeftToeBase 6.129313 -0.000000 -0.000000
RightUpLeg -4.584227 -5.971894 13.413822
RightLeg 13.756689 -0.000000 -0.000000
RightFoot -10.394468 -4.964804 -2.236811
RightToeBase -9.199657 -0.000000 0.000000
